<svg xmlns="http://www.w3.org/2000/svg" viewBox="0 0 512 512" id="crying-face">
  <circle cx="256" cy="256" r="219.5" fill="#fdd402"></circle>
  <path fill="#fbbf13" d="M96.5,256C96.5,144.9519,178.969,53.17993,286,38.54956A221.36948,221.36948,0,0,0,256,36.5C134.7735,36.5,36.5,134.77344,36.5,256S134.7735,475.5,256,475.5a221.36948,221.36948,0,0,0,30-2.04956C178.969,458.82007,96.5,367.0481,96.5,256Z"></path>
  <path fill="#74563a" d="M347.11963 360a7.47567 7.47567 0 0 1-5.26025-2.1543A117.08725 117.08725 0 0 0 259.5 324.13965h-7a117.08815 117.08815 0 0 0-82.37158 33.708 7.49981 7.49981 0 1 1-10.5166-10.69532A132.08717 132.08717 0 0 1 252.5 309.13965h7a132.09452 132.09452 0 0 1 92.88086 38.01465A7.5 7.5 0 0 1 347.11963 360zM127.5293 216.52588c-.08789 0-.17578-.00147-.26416-.0044a7.50016 7.50016 0 0 1-7.23633-7.75488c.1206-3.48437 1.94873-34.54639 28.64307-51.95264a62.85575 62.85575 0 0 1 33.29931-10.01171 7.50022 7.50022 0 1 1 .26856 14.998 47.23286 47.23286 0 0 0-25.374 7.57764c-20.35009 13.26953-21.75293 37.21973-21.8457 39.90723A7.50025 7.50025 0 0 1 127.5293 216.52588z"></path>
  <circle cx="185.12" cy="216" r="19.5" fill="#74563a"></circle>
  <path fill="#674b34" d="M175.62,216a19.4903,19.4903,0,0,1,14.5-18.82861,19.50014,19.50014,0,1,0,0,37.65722A19.4904,19.4904,0,0,1,175.62,216Z"></path>
  <path fill="#74563a" d="M384.61523,216.52588a7.49992,7.49992,0,0,1-7.49072-7.24072c-.09277-2.6875-1.4956-26.6377-21.84521-39.90674a47.232,47.232,0,0,0-25.37451-7.57813,7.50011,7.50011,0,0,1,.13183-14.999c.04541,0,.09082.00049.13672.001a62.85486,62.85486,0,0,1,33.2998,10.0122c26.69385,17.40576,28.522,48.46778,28.64258,51.95215a7.50016,7.50016,0,0,1-7.23633,7.75488C384.791,216.52441,384.70313,216.52588,384.61523,216.52588Z"></path>
  <circle cx="327.025" cy="216" r="19.5" fill="#74563a"></circle>
  <path fill="#674b34" d="M317.52466,216a19.4903,19.4903,0,0,1,14.5-18.82861,19.50014,19.50014,0,1,0,0,37.65722A19.4904,19.4904,0,0,1,317.52466,216Z"></path>
  <path fill="#4ebaea" d="M334.13043,283.02174c-.52683-2.50247-2.07329-4.63044-4.63043-4.63044s-4.1036,2.128-4.63043,4.63044C318.69565,312.34783,294,327.78261,294,357.1087a35.5,35.5,0,0,0,71,0C365,327.78261,340.30435,312.34783,334.13043,283.02174Z"></path>
  <path fill="#2e99d4" d="M314,357.10864c0-23.64013,16.043-38.25744,25.5-58.39734a71.15908,71.15908,0,0,1-5.36957-15.68957c-.52679-2.50244-2.0733-4.63037-4.63043-4.63037s-4.10358,2.12793-4.63043,4.63037C318.69568,312.3479,294,327.78259,294,357.10864a35.4991,35.4991,0,0,0,45.5,34.06214A35.50826,35.50826,0,0,1,314,357.10864Z"></path>
</svg>
